<?xml version="1.0" encoding="UTF-8"?>
<svg id="Camada_1" data-name="Camada 1" xmlns="http://www.w3.org/2000/svg" xmlns:xlink="http://www.w3.org/1999/xlink" viewBox="0 0 391.02 458.06">
  <defs>
    <style>
      .cls-1 {
        fill: #003376;
      }

      .cls-2 {
        fill: #fff;
      }

      .cls-3 {
        fill: none;
      }

      .cls-4 {
        clip-path: url(#clippath-1);
      }

      .cls-5 {
        fill: #6fb645;
      }

      .cls-6 {
        clip-path: url(#clippath-2);
      }
    </style>
    <clipPath id="clippath">
      <path class="cls-3" d="M74.32,31.82c43.12-42.42,113.02-42.42,156.14,0,43.12,42.42,43.12,111.2,0,153.62-43.12,42.42-113.02,42.42-156.14,0-43.12-42.42-43.12-111.2,0-153.62Z"/>
    </clipPath>
    <clipPath id="clippath-1">
      <rect class="cls-3" x="67.6" y="58.88" width="127.91" height="121.43"/>
    </clipPath>
    <clipPath id="clippath-2">
      <path class="cls-3" d="M131.56,58.88c-35.46,0-63.95,27.16-63.95,60.72s28.5,60.72,63.95,60.72,63.95-27.16,63.95-60.72-28.5-60.72-63.95-60.72h0Z"/>
    </clipPath>
  </defs>
  <path class="cls-2" d="M118.54,162.43c8.3,6.62,17.05,12.58,26.25,17.88l-25.36-64.91c-1.57-4.19-5.61-6.84-10.1-6.84h-37.7c15.26,18.33,27.83,38.64,46.9,53.87h0Z"/>
  <path class="cls-1" d="M390.96,446.58l-29.85-328.31c-.45-5.52-5.16-9.71-10.77-9.71h-68.67c-4.49,0-8.53,2.65-10.1,6.84l-65.97,168.9c-3.59,9.05-16.61,9.05-20.2,0l-26.48-68c-15.26-5.74-28.05-14.79-41.29-24.07-11.67-8.17-23.34-15.9-34.11-25.39-18.4-15.9-33.44-36.65-45.55-58.07-4.26,1.1-7.63,4.64-8.08,9.27L.06,446.36c-.67,6.4,4.49,11.7,10.77,11.7h59.24c5.61,0,10.32-4.19,10.77-9.71l15.93-197.38h2.24l70.24,198.05c1.57,4.19,5.61,7.07,10.32,7.07h32.76c4.71,0,8.75-2.87,10.32-7.07l70.24-198.05h2.24l15.93,197.38c.45,5.52,5.16,9.71,10.77,9.71h-.67,59.02c6.28,0,11.44-5.52,10.77-11.7v.22Z"/>
  <rect class="cls-3" x="41.57" y=".37" width="220.81" height="217.25"/>
  <g class="cls-4">
    <g class="cls-6">
      <path class="cls-5" d="M126.84,58.88h9.42c32.76,0,59.24,25.17,59.24,56.3v8.83c0,31.13-26.48,56.3-59.24,56.3h-9.42c-32.76,0-59.24-25.17-59.24-56.3v-8.83c0-31.13,26.48-56.3,59.24-56.3Z"/>
    </g>
  </g>
</svg>