<?xml version="1.0" encoding="UTF-8"?>
<svg xmlns="http://www.w3.org/2000/svg" version="1.1" xmlns:xlink="http://www.w3.org/1999/xlink" viewBox="0 0 414.6 497">
  <defs>
    <style>
      .cls-1 {
        fill: #003376;
      }

      .cls-2 {
        fill: #fff;
      }

      .cls-3 {
        fill: none;
      }

      .cls-4 {
        clip-path: url(#clippath-1);
      }

      .cls-5 {
        clip-path: url(#clippath-3);
      }

      .cls-6 {
        clip-path: url(#clippath-2);
      }

      .cls-7 {
        fill: #71b642;
      }

      .cls-8 {
        clip-path: url(#clippath);
      }
    </style>
    <clipPath id="clippath">
      <rect class="cls-3" x="138.5" y="103.5" width="98.4" height="98.4"/>
    </clipPath>
    <clipPath id="clippath-1">
      <circle class="cls-3" cx="187.7" cy="152.7" r="49.2" transform="translate(-10.4 13.7) rotate(-4.1)"/>
    </clipPath>
    <clipPath id="clippath-2">
      <rect class="cls-3" x="148.9" y="143.3" width="49.2" height="49.2"/>
    </clipPath>
    <clipPath id="clippath-3">
      <path class="cls-3" d="M173.5,143.3c-13.6,0-24.6,11-24.6,24.6s11,24.6,24.6,24.6,24.6-11,24.6-24.6-11-24.6-24.6-24.6Z"/>
    </clipPath>
  </defs>
  <!-- Generator: Adobe Illustrator 28.7.1, SVG Export Plug-In . SVG Version: 1.2.0 Build 142)  -->
  <g>
    <g id="Camada_2">
      <path class="cls-1" d="M263.4,310.9c-2.5,0-4.6-1.9-4.8-4.4l-7.1-89.4h-1l-31.3,89.7c-.7,1.9-2.5,3.2-4.6,3.2h-14.6c-2.1,0-3.9-1.3-4.6-3.2l-31.3-89.7h-1l-7.1,89.4c-.2,2.5-2.3,4.4-4.8,4.4h-26.4c-2.8,0-5.1-2.4-4.8-5.3l13.3-148.7c.2-2.5,2.3-4.4,4.8-4.4h30.6c2,0,3.8,1.2,4.5,3.1l29.4,76.5c1.6,4.1,7.4,4.1,9,0l29.4-76.5c.7-1.9,2.5-3.1,4.5-3.1h30.6c2.5,0,4.6,1.9,4.8,4.4l13.3,148.7c.3,2.8-2,5.3-4.8,5.3h-26.3Z"/>
      <g class="cls-8">
        <g class="cls-4">
          <path class="cls-2" d="M138.5,103.5h98.4v98.4h-98.4v-98.4Z"/>
        </g>
      </g>
      <g class="cls-6">
        <g class="cls-5">
          <path class="cls-7" d="M171.7,143.3h3.6c12.6,0,22.8,10.2,22.8,22.8v3.6c0,12.6-10.2,22.8-22.8,22.8h-3.6c-12.6,0-22.8-10.2-22.8-22.8v-3.6c0-12.6,10.2-22.8,22.8-22.8Z"/>
        </g>
      </g>
    </g>
  </g>
</svg>