<?xml version="1.0" encoding="UTF-8"?>
<svg xmlns="http://www.w3.org/2000/svg" version="1.1" xmlns:xlink="http://www.w3.org/1999/xlink" viewBox="0 0 500 500">
  <defs>
    <style>
      .cls-1 {
        fill: #fff;
      }

      .cls-2 {
        fill: none;
      }

      .cls-3 {
        clip-path: url(#clippath-1);
      }

      .cls-4 {
        fill: #022f76;
      }

      .cls-5 {
        clip-path: url(#clippath-3);
      }

      .cls-6 {
        fill: #6fb645;
      }

      .cls-7 {
        clip-path: url(#clippath-2);
      }

      .cls-8 {
        clip-path: url(#clippath);
      }
    </style>
    <clipPath id="clippath">
      <rect class="cls-2" x="114.4" y="88.4" width="98.4" height="98.4"/>
    </clipPath>
    <clipPath id="clippath-1">
      <circle class="cls-2" cx="163.7" cy="137.6" r="49.2" transform="translate(-9.3 11.9) rotate(-4.1)"/>
    </clipPath>
    <clipPath id="clippath-2">
      <rect class="cls-2" x="124.9" y="124.3" width="49.2" height="49.2"/>
    </clipPath>
    <clipPath id="clippath-3">
      <path class="cls-2" d="M149.5,124.3c-13.6,0-24.6,11-24.6,24.6s11,24.6,24.6,24.6,24.6-11,24.6-24.6-11-24.6-24.6-24.6Z"/>
    </clipPath>
  </defs>
  <!-- Generator: Adobe Illustrator 28.7.1, SVG Export Plug-In . SVG Version: 1.2.0 Build 142)  -->
  <g>
    <g id="Camada_1">
      <path class="cls-4" d="M239.3,295.8c-2.5,0-4.6-1.9-4.8-4.4l-7.1-89.4h-1l-31.3,89.7c-.7,1.9-2.5,3.2-4.6,3.2h-14.6c-2.1,0-3.9-1.3-4.6-3.2l-31.3-89.7h-1l-7.1,89.4c-.2,2.5-2.3,4.4-4.8,4.4h-26.4c-2.8,0-5.1-2.4-4.8-5.3l13.3-148.7c.2-2.5,2.3-4.4,4.8-4.4h30.6c2,0,3.8,1.2,4.5,3.1l29.4,76.5c1.6,4.1,7.4,4.1,9,0l29.4-76.5c.7-1.9,2.5-3.1,4.5-3.1h30.6c2.5,0,4.6,1.9,4.8,4.4l13.3,148.7c.3,2.8-2,5.3-4.8,5.3h-26.3Z"/>
      <path class="cls-4" d="M343.6,143.2v20.2c0,3.2-2.6,5.7-5.7,5.7h-43.1c-3.2,0-5.7,2.6-5.7,5.7v20c0,3.2,2.6,5.7,5.7,5.7h40.8c3.2,0,5.7,2.6,5.7,5.7v20.2c0,3.2-2.6,5.7-5.7,5.7h-40.8c-3.2,0-5.7,2.6-5.7,5.7v20.4c0,3.2,2.6,5.7,5.7,5.7h43.1c3.2,0,5.7,2.6,5.7,5.7v20.2c0,3.2-2.6,5.7-5.7,5.7h-79.2c-3.2,0-5.7-2.6-5.7-5.7v-146.9c0-3.2,2.6-5.7,5.7-5.7h79.2c3.2,0,5.7,2.6,5.7,5.7Z"/>
      <g class="cls-8">
        <g class="cls-3">
          <path class="cls-1" d="M114.4,88.4h98.4v98.4h-98.4v-98.4Z"/>
        </g>
      </g>
      <g class="cls-7">
        <g class="cls-5">
          <path class="cls-6" d="M147.7,124.3h3.6c12.6,0,22.8,10.2,22.8,22.8v3.6c0,12.6-10.2,22.8-22.8,22.8h-3.6c-12.6,0-22.8-10.2-22.8-22.8v-3.6c0-12.6,10.2-22.8,22.8-22.8Z"/>
        </g>
      </g>
      <path class="cls-6" d="M100.7,305.6v15.8c0,.8-.6,1.4-1.4,1.4h-1.5c-.8,0-1.4-.6-1.4-1.4v-15.8c0-.8.6-1.4,1.4-1.4h1.5c.8,0,1.4.6,1.4,1.4Z"/>
      <path class="cls-6" d="M142.3,316.9v4.5c0,.8-.7,1.5-1.5,1.5h-1.3c-.8,0-1.5-.7-1.5-1.5v-15.6c0-.8.7-1.5,1.5-1.5h1.3c.8,0,1.5.7,1.5,1.5v4.4c0,.8.7,1.5,1.5,1.5h3c.8,0,1.5-.7,1.5-1.5v-4.4c0-.8.7-1.5,1.5-1.5h1.3c.8,0,1.5.7,1.5,1.5v15.6c0,.8-.7,1.5-1.5,1.5h-1.3c-.8,0-1.5-.7-1.5-1.5v-4.5c0-.8-.7-1.5-1.5-1.5h-3c-.8,0-1.5.7-1.5,1.5Z"/>
      <path class="cls-6" d="M181.2,305.8v.8c0,.8-.7,1.5-1.5,1.5h-3.4c-.8,0-1.5.7-1.5,1.5v.7c0,.8.7,1.5,1.5,1.5h3.2c.8,0,1.5.7,1.5,1.5v.8c0,.8-.7,1.5-1.5,1.5h-3.2c-.8,0-1.5.7-1.5,1.5v.8c0,.8.7,1.5,1.5,1.5h3.4c.8,0,1.5.7,1.5,1.5v.8c0,.8-.7,1.5-1.5,1.5h-7.7c-.8,0-1.5-.7-1.5-1.5v-15.6c0-.8.7-1.5,1.5-1.5h7.7c.8,0,1.5.7,1.5,1.5Z"/>
      <path class="cls-6" d="M203.2,305.8v11.9c0,.8.7,1.5,1.5,1.5h3.4c.8,0,1.5.7,1.5,1.5v.8c0,.8-.7,1.5-1.5,1.5h-7.7c-.8,0-1.5-.7-1.5-1.5v-15.6c0-.8.7-1.5,1.5-1.5h1.3c.8,0,1.5.7,1.5,1.5Z"/>
      <path class="cls-6" d="M227,305.8c0-.8.7-1.5,1.5-1.5h5.3c1.9,0,3.4.5,4.6,1.5,1.2,1,1.8,2.4,1.8,4.3s-.6,3.3-1.8,4.4c-1.2,1.1-2.7,1.6-4.6,1.6h-1c-.8,0-1.5.7-1.5,1.5v3.9c0,.8-.7,1.5-1.5,1.5h-1.2c-.8,0-1.5-.7-1.5-1.5v-15.6ZM231.3,312.6h1.2c.9,0,1.7-.2,2.3-.6.6-.4.9-1,.9-1.9s-.3-1.5-.9-1.9c-.6-.4-1.4-.6-2.3-.6h-1.2v4.9Z"/>
      <path class="cls-6" d="M279.6,304.3h1.5c.5,0,1,.3,1.2.7l2.2,3.4c.6.9,1.9.9,2.5,0l2.2-3.4c.3-.4.7-.7,1.2-.7h1.5c1.2,0,1.9,1.3,1.2,2.3l-5,7.6c-.2.2-.2.5-.2.8v6.4c0,.8-.7,1.5-1.5,1.5h-1.3c-.8,0-1.5-.7-1.5-1.5v-6.4c0-.3,0-.6-.2-.8l-5-7.6c-.7-1,0-2.3,1.2-2.3Z"/>
      <path class="cls-6" d="M309.9,313.2c0-2.7.9-4.9,2.7-6.8,1.8-1.9,4-2.8,6.6-2.8s4.8.9,6.6,2.8c1.8,1.8,2.7,4.1,2.7,6.8s-.9,5-2.7,6.9c-1.8,1.8-4,2.8-6.6,2.8s-4.9-.9-6.7-2.8c-1.8-1.8-2.6-4.1-2.6-6.9ZM314.5,313.2c0,1,.1,1.9.4,2.7.3.8.8,1.5,1.6,2,.8.6,1.7.8,2.8.8,1.6,0,2.8-.5,3.6-1.6.8-1.1,1.2-2.4,1.2-3.9s-.4-2.8-1.2-3.9c-.8-1.1-2-1.6-3.5-1.6s-2.7.6-3.5,1.6c-.8,1.1-1.3,2.4-1.3,3.9Z"/>
      <path class="cls-6" d="M358.7,304.3c.8,0,1.5.7,1.5,1.5v10.5c0,2.3-.6,4-1.9,5.2-1.2,1.2-3,1.8-5.4,1.8s-4.2-.6-5.4-1.8c-1.2-1.2-1.8-2.9-1.8-5.2v-10.5c0-.8.7-1.5,1.5-1.5h1.3c.8,0,1.5.7,1.5,1.5v9.2c0,1.5.2,2.5.7,3.1.5.6,1.2.9,2.3.9s1.8-.3,2.3-.9c.5-.6.7-1.6.7-3.1v-9.2c0-.8.7-1.5,1.5-1.5h1.3Z"/>
      <path class="cls-6" d="M373.2,308.3c-.4.6-1.2.9-1.9.5l-2-.9c0,0,0-.2.1-.5,0-.3.3-.6.5-1.1.3-.4.6-.9,1-1.3.4-.4,1-.7,1.8-1s1.6-.4,2.5-.4c1.7,0,3.2.5,4.5,1.5,1.3,1,1.9,2.3,1.9,3.8s-1.3,3.4-3.8,4.5c-.3.2-.6.4-.6.6,0,.3-.1.6-.1,1.1v1.3h-2.2c-.8,0-1.5-.7-1.5-1.5v-1c0-.4,0-.7,0-1,0-.2.1-.5.3-.8.2-.3.4-.5.7-.7.2-.2.6-.3,1-.5.4-.2.7-.4.9-.5.2-.1.4-.3.5-.6.2-.3.3-.6.3-1,0-.5-.2-1-.5-1.3-.3-.3-.8-.5-1.3-.5-.7,0-1.3.2-1.8.7-.1.1-.2.3-.3.4ZM375.3,317.7c.7,0,1.3.3,1.8.8s.8,1.1.8,1.8-.3,1.3-.8,1.8-1.1.8-1.8.8-1.3-.3-1.8-.8-.8-1.1-.8-1.8.3-1.3.8-1.8,1.1-.8,1.8-.8Z"/>
      <path class="cls-4" d="M381.7,144.4v145.3c0,3.4-2.7,6.1-6.1,6.1h-23.8c-3.4,0-6.1-2.7-6.1-6.1v-145.3c0-3.4,2.7-6.1,6.1-6.1h23.8c3.4,0,6.1,2.7,6.1,6.1Z"/>
    </g>
  </g>
</svg>